@startuml
!theme reddress-darkgreen

package Godot {
    class Node
    class Node2D extends Node
}

package Observers{
    interface "IObserver T" as IObserver {
        + Update(what T)
    }
    abstract "ASingleObservable T" as ASingleObservable {
        # observer : IObserver
        + SetObserver(observer : T)
        + Notify()
    }
    abstract "AMultipleObservable<T>" as AMultipleObservable {
        # observers : IObserver[*]
        + RegisterObserver(observer : T)
        + UnregisterObserver(observer : T)
        + NotifyAll()
    }
    package BuildingsObservers{
        interface IBuildingObserver {
            + ^Update(coordinates : Vector2)
        }
        abstract ABuildingObservable{
            + SetObserver(observer : IBuildingObserver)
        }
    }
    package GaugesObservers{
        interface IGaugeObserver{
            + Update(rate : int)
        }
        abstract AGaugeObservable{
            + RegisterObserver(observer : IBuildingObserver)
            + UnregisterObserver(observer : IBuildingObserver)
        }
    }

    package TerritoryObservers{
        interface ITerritoryObserver{
            + Update(world : Grid)
        }
        abstract ATerritoryObservable{
            + SetObserver(observer : IBuildingObserver)
        }
    }
}
package OurProject {
    package Models {
        class TerritoryModel { /' A grid, a collection of Cell '/
            /' Grid '/
            - grid : Cell[*]
            + GetGrid() : Cell[*]
            + SetGrid()
            /' Rates '/
            - economy : int
            - ecology : int
            - sociability : int
            + GetEconomyRate() : int
            + GetEcologyRate() : int
            + GetSociabilityRate() : int
        }
        abstract ABuildingModel{
            - buildingName : string
            - impacts : int[3]
            - observer : IBuildingView /' just one for each instance! '/
            + GetBuildingName() : string
            + GetImpacts() : int[3]
            + RegisterObserver(observer : IBuildingObserver)
            + UnregisterObserver(observer : IBuildingObserver)
            + NotifyObservers()
            /' + SomeMethodThatUpdatesData() : void {\n // Mettre à jour les données du modèle\n// Puis notifier les observateurs\nNotifyObservers()\n}
            impacts = {\n +-sociability,\n +-ecology,\n +-economy\n} " '/
        }
        interface IBuildingModel{
            + GetBuildingName() : string
            + GetImpacts() : int[3]
        }
        class MapModelGenerator {
            + GenerateMap(int size) : ITerritoryView
        }
        enum CellKind{
            BUILDING,
            WASTELAND /' free cell '/
        }
        class Cell {
            - type : CellKind
            + GetCellType() : CellKind
        }
        class BuildingModelsFactory{
            /' Some examples '/
            + CreateBar() : IBuildingModel
            + CreateCarFactory() : IBuildingModel
            + CreatePowerPlant() : IBuildingModel
            + CreateOatField() : IBuildingModel
            + CreateHaulageFirm() : IBuildingModel
        }
    }
    package Views {
        interface IBuildingView {
            + GetInGridPosition() : Vector2
            + ^{override} _Input(click : InputEvent)
            + ^Update()
        }
        abstract ABuildingView {
            # inGridPosition : Vector2
            + ^GetInGridPosition() : Vector2 
            + ^{override} _Input(click : InputEvent)
            + ^Update()
        }
        class BuildingViewsFactory{
            /' Some examples '/
            + CreateBar() : IBuildingView
            + CreateCarFactory() : IBuildingView
            + CreatePowerPlant() : IBuildingView
            + CreateOatField() : IBuildingView
            + CreateHaulageFirm() : IBuildingView
        }
        class "<<static>>\nSceneManager" as SceneManager {
            + Initialize(root : Node, what : Node) /' unsafe, may cause errors '/
            + GoToScene(actualScene : Node, targetScene : Node) /' Destroy the actual scene after load target! '/
        }
        class MapViewGenerator {
            + GenerateMap(int size) : TerritoryView
        }
        abstract Gauge {
            + ^{abstract} Update()
        }
        class EconomyGauge {
            + ^Update()
        }
        class EcologyGauge {
            + ^Update()
        }
        class SociabilityGauge {
            + ^Update()
        }
        class TerritoryView { /'The map, the grid'/
            + ^Update()
        }
        interface IMovable{
            + GetInGridPosition() : Vector2 /' Coordinates for grid '/
            + ^{override} _Input(click : InputEvent)
        }
    }
    package Controllers {
        class ImpactsController{
            + ApplyImpacts(gauge : Gauge, modifier : int)
        }
    }
}
/' LINKS '/
Gauge --|> EconomyGauge
Gauge --|> EcologyGauge
Gauge --|> SociabilityGauge
SceneManager o-> Gauge : < instantiate
SceneManager o-> TerritoryView : < instantiate
MapViewGenerator o-> TerritoryView
Node2D <|-- Gauge
Node2D <|-- ABuildingView
Node2D <|-- TerritoryView
ABuildingView --|> Cell
Gauge --|> IGaugeObserver
TerritoryView --|> ITerritoryObserver
ImpactsController o-> TerritoryModel : > changes values
ImpactsController o-> Gauge : > calls for update
IBuildingView <..o BuildingViewsFactory : < create
IBuildingView --|> IMovable
ABuildingView --|> IBuildingView
ABuildingView --|> IBuildingObserver
Cell *..> TerritoryView : > instantiate and save
IBuildingModel o..> BuildingModelsFactory : < create
MapModelGenerator o-> TerritoryModel
ABuildingModel --|> ABuildingObservable
Cell <. CellKind : use
Cell --|> Node2D
ABuildingModel --|> IBuildingModel
ITerritoryObserver --|> IObserver
IBuildingObserver --|> IObserver
IGaugeObserver --|> IObserver
ASingleObservable <|--u ATerritoryObservable
ASingleObservable <|--u ABuildingObservable
AMultipleObservable <|--u AGaugeObservable
TerritoryModel --|> AGaugeObservable
TerritoryModel --|> ATerritoryObservable

/' Some examples
ABuildingModel <|-- PowerPlantModel
ABuildingModel <|-- OatFieldModel
ABuildingModel <|-- HaulageFirmModel '/
/' Some examples
ABuildingView <|-- PowerPlantView
ABuildingView <|-- OatFieldView
ABuildingView <|-- HaulageFirmView '/
@enduml
